<?xml version="1.0" encoding="iso-8859-1"?>
<!-- Generator: Adobe Illustrator 19.0.0, SVG Export Plug-In . SVG Version: 6.00 Build 0)  -->
<svg version="1.1" id="Capa_1" xmlns="http://www.w3.org/2000/svg" xmlns:xlink="http://www.w3.org/1999/xlink" x="0px" y="0px"
	 viewBox="0 0 512 512" style="enable-background:new 0 0 512 512;" xml:space="preserve">
<path style="fill:#DBD9E2;" d="M312.155,384.25v72.141h80.157c0,26.562,21.532,48.094,48.094,48.094s48.094-21.532,48.094-48.094
	V384.25H312.155z"/>
<path style="fill:#EDECF1;" d="M392.311,456.391V7.514L320.17,31.561L256.045,7.514L191.92,31.561L127.794,7.514L63.668,31.561
	L7.559,7.514v448.877c0,26.562,21.532,48.094,48.094,48.094h304.595h32.063h48.094C413.843,504.485,392.311,482.953,392.311,456.391
	z"/>
<path style="fill:#DBD9E2;" d="M31.607,456.391V17.821L7.56,7.514v448.877c0,26.562,21.532,48.094,48.094,48.094H79.7
	C53.139,504.485,31.607,482.953,31.607,456.391z"/>
<polygon style="fill:#645BA5;" points="392.311,7.514 320.169,31.561 256.045,7.514 191.92,31.561 127.794,7.514 63.668,31.561 
	7.56,7.514 7.56,55.942 392.311,55.942 "/>
<polygon style="fill:#494170;" points="31.607,17.821 7.56,7.514 7.56,55.608 31.607,55.608 "/>
<path style="fill:#F09C48;" d="M183.683,186.528c0.145-0.869,0.221-1.759,0.221-2.669v-24.047c0-26.519-21.575-48.094-48.094-48.094
	H87.716c-8.853,0-16.031,7.178-16.031,16.031v144.282c0,8.853,7.178,16.031,16.031,16.031h80.157
	c26.519,0,48.094-21.575,48.094-48.094v-8.016C215.967,210.97,202.459,193.082,183.683,186.528z M103.747,143.781h32.063
	c8.839,0,16.031,7.192,16.031,16.031v24.047h-48.094V143.781z M183.904,239.968c0,8.839-7.192,16.031-16.031,16.031h-64.125v-40.078
	h64.125c8.839,0,16.031,7.192,16.031,16.031V239.968z"/>
<rect x="298.712" y="148.72" transform="matrix(0.7071 0.7071 -0.7071 0.7071 291.756 -166.4538)" style="fill:#EDBC53;" width="96.187" height="240.467"/>
<rect x="339.762" y="165.724" transform="matrix(0.7071 0.7071 -0.7071 0.7071 308.76 -173.4964)" style="fill:#F09C48;" width="48.093" height="240.467"/>
<polygon style="fill:#B6B3C6;" points="227.774,319.958 216.439,399.309 295.789,387.974 "/>
<polygon style="fill:#A4A0B8;" points="216.439,399.309 295.789,387.974 280.094,372.279 "/>
<path style="fill:#DBD9E2;" d="M454.49,115.913l45.344,45.344c6.26,6.26,6.26,16.411,0,22.671l-34.007,34.007l-68.015-68.015
	l34.007-34.007C438.079,109.652,448.23,109.652,454.49,115.913z"/>
<path style="fill:#C8C6D4;" d="M499.834,161.257l-5.388-5.389l-45.344,45.344l16.724,16.724l34.007-34.007
	C506.095,177.668,506.095,167.517,499.834,161.257z"/>
<rect x="392.223" y="163.408" transform="matrix(0.7071 0.7071 -0.7071 0.7071 253.0144 -259.9684)" style="fill:#6A56A8;" width="96.187" height="24.047"/>
<rect x="360.618" y="174.355" transform="matrix(0.7071 0.7071 -0.7071 0.7071 317.3919 -177.0745)" style="fill:#E57D37;" width="23.651" height="240.467"/>
<rect x="454.147" y="189.06" transform="matrix(0.7071 0.7071 -0.7071 0.7071 278.6673 -270.5962)" style="fill:#494170;" width="23.651" height="24.047"/>
<path d="M488.499,376.736h-88.673V326.47c0-4.15-3.365-7.515-7.515-7.515s-7.515,3.365-7.515,7.515v129.921
	c0,15.99,6.784,30.425,17.624,40.579H55.654c-22.376,0-40.579-18.204-40.579-40.579V18.911l45.634,19.558
	c1.78,0.763,3.786,0.81,5.599,0.129l61.487-23.057l61.486,23.057c1.7,0.638,3.576,0.638,5.277,0l61.487-23.057l61.487,23.057
	c1.61,0.605,3.382,0.637,5.015,0.093l62.25-20.75v102.794c0,4.15,3.365,7.515,7.515,7.515s7.515-3.365,7.515-7.515V7.514
	c0-5.041-5.101-8.723-9.891-7.129l-69.617,23.206L258.683,0.479c-1.7-0.638-3.576-0.638-5.277,0L191.92,23.536L130.433,0.479
	c-1.7-0.638-3.576-0.638-5.277,0l-61.3,22.987L10.519,0.607C5.642-1.483,0.045,2.218,0.045,7.514v448.877
	C0.045,487.054,24.991,512,55.654,512h384.751c30.663,0,55.609-24.946,55.609-55.609V384.25
	C496.014,380.1,492.649,376.736,488.499,376.736z M480.984,456.391c0,22.376-18.204,40.579-40.579,40.579
	s-40.579-18.204-40.579-40.579v-64.626h81.159V456.391z"/>
<path d="M223.481,239.968v-8.016c0-21.714-12.675-41.304-32.063-50.377v-21.764c0-30.663-24.946-55.609-55.609-55.609H87.716
	c-12.983,0-23.546,10.563-23.546,23.546v144.282c0,12.983,10.563,23.546,23.546,23.546h80.157
	C198.536,295.577,223.481,270.631,223.481,239.968z M167.873,280.548H87.716c-4.696,0-8.517-3.82-8.517-8.517V127.749
	c0-4.696,3.82-8.517,8.517-8.517h48.094c22.376,0,40.579,18.204,40.579,40.579v24.047c0,0.48-0.04,0.961-0.118,1.429
	c-0.604,3.61,1.48,7.129,4.936,8.335c16.296,5.687,27.245,21.091,27.245,38.33v8.016
	C208.452,262.344,190.248,280.548,167.873,280.548z"/>
<path d="M103.747,191.374h48.094c4.15,0,7.515-3.365,7.515-7.515v-24.047c0-12.983-10.563-23.546-23.546-23.546h-32.063
	c-4.15,0-7.515,3.365-7.515,7.515v40.078C96.233,188.009,99.596,191.374,103.747,191.374z M111.262,151.295h24.548
	c4.696,0,8.517,3.82,8.517,8.517v16.532h-33.065V151.295z"/>
<path d="M167.873,208.407h-64.125c-4.15,0-7.515,3.365-7.515,7.515V256c0,4.15,3.365,7.515,7.515,7.515h64.125
	c12.983,0,23.546-10.563,23.546-23.546v-8.016C191.419,218.969,180.856,208.407,167.873,208.407z M176.389,239.968
	c0,4.696-3.82,8.517-8.517,8.517h-56.611v-25.049h56.611c4.696,0,8.517,3.82,8.517,8.517V239.968z"/>
<path d="M71.685,423.828h104.204c4.15,0,7.515-3.365,7.515-7.515c0-4.15-3.365-7.515-7.515-7.515H71.685
	c-4.15,0-7.515,3.365-7.515,7.515C64.17,420.463,67.534,423.828,71.685,423.828z"/>
<path d="M71.685,383.749h40.078c4.15,0,7.515-3.365,7.515-7.515c0-4.15-3.365-7.515-7.515-7.515H71.685
	c-4.15,0-7.515,3.365-7.515,7.515C64.17,380.385,67.534,383.749,71.685,383.749z"/>
<path d="M199.434,376.235c0-4.15-3.365-7.515-7.515-7.515h-56.11c-4.15,0-7.515,3.365-7.515,7.515c0,4.15,3.365,7.515,7.515,7.515
	h56.11C196.07,383.749,199.434,380.385,199.434,376.235z"/>
<path d="M71.685,343.671h80.157c4.15,0,7.515-3.365,7.515-7.515c0-4.15-3.365-7.515-7.515-7.515H71.685
	c-4.15,0-7.515,3.365-7.515,7.515C64.17,340.306,67.534,343.671,71.685,343.671z"/>
<path d="M191.92,328.642h-16.031c-4.15,0-7.515,3.365-7.515,7.515c0,4.15,3.365,7.515,7.515,7.515h16.031
	c4.15,0,7.515-3.365,7.515-7.515C199.434,332.006,196.07,328.642,191.92,328.642z"/>
<path d="M505.147,155.942l-45.343-45.344l0,0c-9.18-9.18-24.118-9.18-33.299,0L222.46,314.644c-1.137,1.137-1.897,2.66-2.126,4.251
	l-10.981,76.871L194.12,411c-2.935,2.935-2.935,7.693,0,10.627c2.895,2.895,7.732,2.895,10.627,0l15.233-15.233l76.871-10.981
	c1.591-0.227,3.114-0.989,4.251-2.126l204.044-204.045C514.224,180.166,514.224,165.019,505.147,155.942z M414.815,143.544
	l57.388,57.388l-6.376,6.376l-57.388-57.388L414.815,143.544z M225.295,390.452l7.793-54.554l46.76,46.76L225.295,390.452z
	 M295.79,377.346l-23.381-23.381l103.758-103.757c2.935-2.935,2.935-7.693,0-10.627c-2.934-2.935-7.692-2.935-10.627,0
	L261.781,343.338l-23.38-23.38l159.41-159.41l23.381,23.381l-31.94,31.94c-2.935,2.935-2.935,7.693,0,10.627
	c2.935,2.935,7.693,2.935,10.627,0l31.94-31.94l23.381,23.381L295.79,377.346z M494.521,178.615l-11.69,11.69l-57.388-57.388
	l11.69-11.69c3.32-3.319,8.724-3.319,12.044,0l45.343,45.344C497.803,169.852,497.803,175.332,494.521,178.615z"/>
<g>
</g>
<g>
</g>
<g>
</g>
<g>
</g>
<g>
</g>
<g>
</g>
<g>
</g>
<g>
</g>
<g>
</g>
<g>
</g>
<g>
</g>
<g>
</g>
<g>
</g>
<g>
</g>
<g>
</g>
</svg>
