<svg height="512" viewBox="0 0 512 512" width="512" xmlns="http://www.w3.org/2000/svg"><g id="Filledoutline"><path d="m480 314.46a71.939 71.939 0 0 1 -51.28 68.92l-54.41 16.33-54.31 16.29-10.34-34.48 81.68-24.51 27.03-8.11a35.958 35.958 0 0 0 -18.42-69.48l-15.85 3.66-8.1-35.08 15.86-3.66a71.852 71.852 0 0 1 88.14 70.12z" fill="#e3e4e2"/><path d="m309.66 381.52 81.68-24.51c-1.97 4.8-3.88 9.33-5.68 13.6-4.27 10.12-7.95 18.86-10.48 26.45-.3.89-.59 1.77-.87 2.65l-54.31 16.29z" fill="#c9c9c8"/><path d="m421.6 243.74c-1.4 12.63-3.36 24.49-5.68 35.62a35.735 35.735 0 0 0 -15.97.06l-15.85 3.66-8.1-35.08 15.86-3.66a71.728 71.728 0 0 1 29.74-.6z" fill="#c9c9c8"/><rect fill="#e9ae48" height="32" rx="16" width="384" x="64" y="456"/><path d="m344 456s3.6-26.812 16-64 48-94.071 48-192h-304c0 97.929 35.6 154.812 48 192s16 64 16 64z" fill="#e3e4e2"/><circle cx="256" cy="328" fill="#e9ae48" r="48"/><path d="m463.628 256.976a80.461 80.461 0 0 0 -49.128-22.228c.962-10.97 1.5-22.537 1.5-34.748a8 8 0 0 0 -8-8h-304a8 8 0 0 0 -8 8c0 78.018 21.8 129.736 37.713 167.5 4.33 10.274 8.07 19.147 10.7 27.03a421.379 421.379 0 0 1 14.107 53.47h-78.52a24 24 0 0 0 0 48h352a24 24 0 0 0 0-48h-78.525c1.509-7.947 4.255-20.667 8.783-36.326l68.758-20.631a79.962 79.962 0 0 0 32.612-134.067zm-38.18 35.6a27.956 27.956 0 0 1 -9.378 48.657l-30.695 9.212a426.5 426.5 0 0 0 20.838-63.891 27.776 27.776 0 0 1 19.235 6.026zm14.552 179.424a8.009 8.009 0 0 1 -8 8h-352a8 8 0 0 1 0-16h352a8.009 8.009 0 0 1 8 8zm-265.2-24a427.014 427.014 0 0 0 -15.214-58.53c-2.823-8.468-6.674-17.605-11.133-28.185-14.827-35.185-34.94-82.908-36.372-153.285h287.838c-1.432 70.377-21.545 118.1-36.376 153.285-4.459 10.58-8.31 19.717-11.133 28.185a427.014 427.014 0 0 0 -15.21 58.53zm284.558-95.366a63.5 63.5 0 0 1 -32.941 23.083l-58.385 17.519c2.413-7.022 5.659-14.831 9.392-23.7l43.241-12.978a43.961 43.961 0 0 0 -11.065-86.035q1.8-9.573 3.155-19.877a64.357 64.357 0 0 1 39.761 17.842 63.975 63.975 0 0 1 6.846 84.146z"/><path d="m256 272a56 56 0 1 0 56 56 56.063 56.063 0 0 0 -56-56zm0 96a40 40 0 1 1 40-40 40.045 40.045 0 0 1 -40 40z"/><path d="m144 164a12.013 12.013 0 0 1 12-12h134.707a27.838 27.838 0 0 0 -2.707 12v12h16v-12a12.013 12.013 0 0 1 12-12h64a28 28 0 0 0 0-56h-160a12 12 0 0 1 0-24h212v-16h-212a28 28 0 0 0 0 56h160a12 12 0 0 1 0 24h-224a28.032 28.032 0 0 0 -28 28v12h16z"/><path d="m448 56h16v16h-16z"/></g></svg>