<svg height="512" viewBox="0 0 64 64" width="512" xmlns="http://www.w3.org/2000/svg"><g id="Fill_Outline" data-name="Fill Outline"><g id="Color"><g><path d="m36 30h-15l3-27h19z" fill="#f9e109"/><path d="m29.656 9.092.677-6.092h-6.333l-3 27h15l1.827-7.048a13.421 13.421 0 0 1 -8.171-13.86z" fill="#fcbc04"/><path d="m18.95 25.908-5.94 10.8a8 8 0 0 0 3.432 11.011l18.958 9.481a35.993 35.993 0 0 0 16.1 3.8h3.636a5.866 5.866 0 0 0 5.864-5.866 5.864 5.864 0 0 0 -3.893-5.524 22.42 22.42 0 0 1 -13.633-13.746l-3.3-9.491a2.7 2.7 0 0 0 -4.1-1.325 12.642 12.642 0 0 1 -14.26.162 2 2 0 0 0 -2.864.698z" fill="#f89c8d"/><path d="m57.439 49.758a6.288 6.288 0 0 1 -2.889.341l-3.374-.413a36.009 36.009 0 0 1 -15.52-5.728l-2.533-1.679a15.988 15.988 0 0 1 -7.032-15.249 12.6 12.6 0 0 1 -4.276-1.82 2 2 0 0 0 -2.862.7l-5.94 10.8a8 8 0 0 0 3.432 11.011l18.955 9.479a35.993 35.993 0 0 0 16.1 3.8h3.636a5.855 5.855 0 0 0 2.3-11.242z" fill="#f8664f"/><path d="m54.772 57.136-3.609-.443a35.992 35.992 0 0 1 -15.515-5.737l-17.659-11.721a7.971 7.971 0 0 1 -3.456-5.3l-1.523 2.775a8 8 0 0 0 3.432 11.011l18.958 9.479a35.993 35.993 0 0 0 16.1 3.8h3.636a5.8 5.8 0 0 0 5.685-7.24 5.866 5.866 0 0 1 -6.049 3.376z" fill="#57b7eb"/><path d="m23 30 9 7-3 1 3 6-10-7 4-1z" fill="#f9e109"/><path d="m32 44-2.549-5.1a15.971 15.971 0 0 1 -3.033-6.243l-3.418-2.657 3 6-4 1z" fill="#fcbc04"/><path d="m56.134 59h-3.634a35.993 35.993 0 0 1 -16.1-3.8l-18.958-9.479a8 8 0 0 1 -3.9-9.986l-.536.975a8 8 0 0 0 3.432 11.011l18.962 9.479a35.993 35.993 0 0 0 16.1 3.8h3.636a5.864 5.864 0 0 0 5.647-4.3 5.849 5.849 0 0 1 -4.649 2.3z" fill="#4891d3"/></g></g><g id="Outline_copy" data-name="Outline copy"><g fill="#39519d"><path d="m57.441 48.667c-.369-.131-.733-.274-1.093-.425a1 1 0 0 0 -.774 1.844c.394.166.793.322 1.2.465a4.877 4.877 0 0 1 2.984 3.07 4.846 4.846 0 0 1 -4.861 2.524l-3.612-.445a35.184 35.184 0 0 1 -15.085-5.577 1 1 0 1 0 -1.1 1.666 37.171 37.171 0 0 0 15.946 5.9l3.608.444a7.006 7.006 0 0 0 .851.053 6.818 6.818 0 0 0 4.214-1.469 4.855 4.855 0 0 1 -4.585 3.283h-3.634a35.163 35.163 0 0 1 -15.652-3.695l-9.431-4.716a1 1 0 1 0 -.895 1.789l9.431 4.716a36.923 36.923 0 0 0 4.597 1.906h-34.55a1 1 0 0 0 0 2h50.134a6.866 6.866 0 0 0 2.307-13.333z"/><path d="m16.168 42.445a1 1 0 0 0 .277 1.387l3 2a1 1 0 1 0 1.11-1.664l-3-2a1 1 0 0 0 -1.387.277z"/><circle cx="37" cy="35" r="1"/><circle cx="38" cy="39" r="1"/><circle cx="41" cy="43" r="1"/><path d="m32.986 37.169a1 1 0 0 0 -.372-.958l-9-7a1 1 0 0 0 -1.509 1.236l2.443 4.885-2.791.7a1 1 0 0 0 -.33 1.789l10 7a1 1 0 0 0 1.473-1.268l-2.49-4.969 1.906-.636a1 1 0 0 0 .67-.779zm-4.881 1.278 1.236 2.471-4.971-3.48 1.873-.468a1 1 0 0 0 .652-1.417l-1.029-2.053 4.045 3.147-1.227.409a1 1 0 0 0 -.579 1.4z"/><circle cx="44" cy="47" r="1"/><path d="m20 8a1 1 0 0 0 -1-1h-8a1 1 0 0 0 0 2h8a1 1 0 0 0 1-1z"/><path d="m12 13a1 1 0 0 0 0 2h5a1 1 0 0 0 0-2z"/><path d="m5 20a1 1 0 0 0 1 1h10a1 1 0 0 0 0-2h-10a1 1 0 0 0 -1 1z"/><path d="m11 57h13a1 1 0 0 0 0-2h-13a1 1 0 0 0 0 2z"/><path d="m13 50a1 1 0 0 0 -1-1h-7a1 1 0 0 0 0 2h7a1 1 0 0 0 1-1z"/><path d="m12 28a1 1 0 0 0 0-2h-9a1 1 0 0 0 0 2z"/><path d="m10 34a1 1 0 0 0 0-2h-6a1 1 0 0 0 0 2z"/><path d="m3 4h19.883l-.908 8.177a1 1 0 0 0 .883 1.1 1.065 1.065 0 0 0 .112.006 1 1 0 0 0 .992-.89l1.032-9.283a1 1 0 0 0 -.994-1.11h-21a1 1 0 0 0 0 2z"/><path d="m23.515 16.416a1 1 0 1 0 -1.987-.221l-.854 7.685a3.048 3.048 0 0 0 -.684.078 3.006 3.006 0 0 0 -1.916 1.469l-5.94 10.8a9 9 0 0 0 3.86 12.387l5.942 2.971a1 1 0 0 0 .894-1.785l-5.941-2.971a7 7 0 0 1 -3-9.635l.411-.746a8.9 8.9 0 0 0 3.138 3.623l14.577 9.675a1 1 0 1 0 1.106-1.666l-14.579-9.68a6.928 6.928 0 0 1 -2.951-4.311l4.235-7.7a1 1 0 0 1 1.434-.349 13.556 13.556 0 0 0 15.387-.175 1.69 1.69 0 0 1 .728-.291h.031s.025-.006.038-.006a1.666 1.666 0 0 1 .7.069 1.686 1.686 0 0 1 1.085 1.063l2.071 5.946-1.539.384a1 1 0 0 0 .239 1.97 1.017 1.017 0 0 0 .243-.03l1.714-.429.574 1.65c.07.2.158.391.233.588l-1 .251a1 1 0 0 0 .236 1.97 1.017 1.017 0 0 0 .243-.03l1.322-.331a23.248 23.248 0 0 0 1.177 2.146l-.983.245a1 1 0 0 0 .241 1.97 1.017 1.017 0 0 0 .243-.03l1.7-.425a23.636 23.636 0 0 0 1.893 2.217l-1.075.268a1 1 0 0 0 .239 1.97 1.017 1.017 0 0 0 .243-.03l2.334-.584a23.113 23.113 0 0 0 2.29 1.728 1 1 0 1 0 1.092-1.676c-.4-.263-.793-.549-1.177-.839a.981.981 0 0 0 .189-.841 1 1 0 0 0 -1.212-.728l-.659.17a21.6 21.6 0 0 1 -2.033-2.181l.18-.045a1 1 0 1 0 -.484-1.94l-.989.247a21.514 21.514 0 0 1 -1.222-2.134l.7-.173a1 1 0 1 0 -.484-1.94l-1.04.26c-.1-.252-.21-.5-.3-.755l-.528-1.485.338-.084a1 1 0 1 0 -.484-1.94l-.514.129-2.127-6.114a3.67 3.67 0 0 0 -2.355-2.306c-.033-.01-.067-.01-.1-.02l5.31-20.468a1 1 0 0 0 -1.936-.5l-5.438 20.976a3.693 3.693 0 0 0 -1.093.5 11.565 11.565 0 0 1 -12.887.3z"/></g></g></g></svg>